# xmcd
#
# Track frame offsets:
#	183
#	18508
#	40390
#	57708
#	79373
#	100933
#	113630
#	133208
#	153950
#	172070
#	191380
#	210048
#	227715
#	243933
#
# Disc length: 3538 seconds
#
# Revision: 6
# Processed by: cddbd v1.5.1PL0 Copyright (c) Steve Scherf et al.
# Submitted via: audiograbber 1.83.01
#
DISCID=b90dd00e
DTITLE=Various Artist - Everlasting Love Songs 6
DYEAR=1990
DGENRE=Easy Listening
TTITLE0=George Benson - Nothing Gonna Change My Love For You
TTITLE1=Bobby Brown - Rock Witcha
TTITLE2=Chicago - Hard To Say I'm Sorry
TTITLE3=Phil Collins - One More Night
TTITLE4=Roberta Flack - Killing Me Softly With His Song
TTITLE5=England Dan and John Ford Coley - Just Tell Me You Love Me
TTITLE6=Laura Allen - Slip And Slide
TTITLE7=Glen Frey - The One You Love
TTITLE8=Patti Labelle - If You Asked Me To
TTITLE9=Everything But The Girl - I Don't Want To Talk About It
TTITLE10=Randy Crawford - Almaz
TTITLE11=Linda Ronstadt - Blue Bayou
TTITLE12=Eagles - Desperado
TTITLE13=Foreigner - Waiting For A Girl Like You
EXTD=YEAR: 1990
EXTT0=
EXTT1=
EXTT2=
EXTT3=
EXTT4=
EXTT5=
EXTT6=
EXTT7=
EXTT8=
EXTT9=
EXTT10=
EXTT11=
EXTT12=
EXTT13=
PLAYORDER=
